<svg version="1.1" id="Layer_1" xmlns="http://www.w3.org/2000/svg" xmlns:xlink="http://www.w3.org/1999/xlink" x="0px" y="0px"
	 width="100%" viewBox="0 0 560 560" enable-background="new 0 0 560 560" xml:space="preserve">
<path fill="#FFFFFF" opacity="1.000000" stroke="none" 
	d="
M427.394897,406.354523 
	C433.315521,407.592682 436.363708,410.709473 435.979645,414.783203 
	C435.567169,419.158020 431.829468,422.356812 426.350403,422.215668 
	C422.317017,422.111786 420.916473,423.587219 421.277191,427.450897 
	C421.561981,430.501282 421.067963,433.466156 418.963745,435.896667 
	C416.827850,438.363831 414.171539,439.517578 410.930450,438.521454 
	C407.736969,437.539978 405.971466,435.297302 405.709503,431.943604 
	C405.477844,428.978058 405.286682,426.009308 405.084991,423.145966 
	C402.225586,421.735718 399.514679,422.537262 396.907501,422.307922 
	C392.561981,421.925690 388.981720,418.820221 388.832672,414.890167 
	C388.657379,410.267120 391.635895,408.054901 395.605927,406.812347 
	C398.819916,405.806427 403.443359,407.640076 405.135162,404.182129 
	C406.465088,401.463959 405.646362,397.657501 405.651917,394.334229 
	C405.698517,366.423737 421.135803,344.973724 447.793701,335.958435 
	C450.002594,335.211487 451.844604,334.530396 451.824860,331.728851 
	C451.754395,321.731323 451.755371,311.733368 451.689331,301.735809 
	C451.685303,301.126007 451.334747,300.518463 450.632538,298.261047 
	C426.890289,321.956635 403.832001,344.969604 380.811249,367.945068 
	C389.584290,379.334991 383.438751,389.233795 369.960663,388.344086 
	C368.731659,389.788910 369.946686,391.161957 370.127991,392.559784 
	C370.764374,397.465424 369.442596,401.470001 364.883362,403.976990 
	C360.499817,406.387329 356.410919,405.689270 352.994324,402.269928 
	C341.099457,390.365601 329.162262,378.496155 317.563934,366.306366 
	C312.329010,360.804504 313.755737,354.867493 321.525482,348.455383 
	C312.860565,338.647278 303.212769,329.888245 293.802643,320.417450 
	C288.463440,324.566528 284.419434,329.436218 279.921875,333.817627 
	C277.419678,336.255188 275.154694,338.943390 272.187042,340.879364 
	C266.375793,344.670197 259.147736,344.038696 254.844482,339.327057 
	C250.010483,334.034332 249.275894,326.138275 253.988632,321.058319 
	C261.801392,312.636749 270.065887,304.630096 278.248688,296.558777 
	C280.311188,294.524384 283.020081,293.619537 286.012085,293.655884 
	C308.097412,293.924438 303.084961,291.093079 318.213928,306.430847 
	C334.830414,323.276642 351.497192,340.074097 367.965393,357.063873 
	C371.131836,360.330597 373.327789,360.725494 376.317352,357.089294 
	C378.741699,354.140656 381.532593,351.463196 384.362793,348.887299 
	C386.919159,346.560608 386.843842,344.731873 384.395691,342.303192 
	C373.631104,331.624451 363.027527,320.783661 352.308716,310.058441 
	C334.170319,291.909241 315.909973,273.880890 297.899567,255.605865 
	C294.705261,252.364609 292.790344,252.132446 289.492401,255.431885 
	C261.932281,283.004578 234.994186,311.197601 206.881271,338.220459 
	C199.451721,345.361908 199.619583,345.536560 206.811264,352.992249 
	C211.125931,357.465302 211.119507,357.458862 215.700409,352.895081 
	C218.651642,349.954926 221.498917,346.894104 224.617249,344.141632 
	C229.745712,339.614716 236.344391,339.479797 240.402023,343.571442 
	C244.756866,347.962799 244.624527,355.207611 239.692993,360.144379 
	C232.629395,367.215485 225.412964,374.142395 218.067871,380.920746 
	C213.520218,385.117493 209.078094,385.410614 204.934540,382.400513 
	C200.684723,379.313232 199.154984,374.206451 201.908798,369.077606 
	C203.824356,365.509949 202.418488,363.516937 200.195007,361.297333 
	C187.575729,348.699982 174.942276,336.116791 162.339844,323.502625 
	C155.391815,316.548126 148.516129,309.521332 141.555649,302.579407 
	C140.329239,301.356293 139.389725,299.534271 137.055939,299.724304 
	C135.336456,302.098267 136.134933,304.849030 136.095230,307.408905 
	C135.981537,314.739685 136.232224,322.078522 136.012802,329.404358 
	C135.900833,333.142822 137.204025,334.849365 140.817413,336.243073 
	C164.307281,345.303192 178.842758,361.875000 182.202087,387.296539 
	C182.554337,389.962128 183.722824,390.879730 186.037109,391.655060 
	C197.748215,395.578461 203.264297,403.340302 203.288727,415.575256 
	C203.307037,424.741272 203.431915,433.909149 203.278336,443.072357 
	C203.220261,446.537292 204.420486,447.768158 207.909790,447.713135 
	C218.239807,447.550171 228.577393,447.811035 238.905136,447.587708 
	C243.089493,447.497192 244.491028,449.042938 244.332001,453.104828 
	C244.097473,459.095062 244.158813,465.104706 244.323181,471.099823 
	C244.419525,474.613617 243.321930,476.261078 239.506973,476.241760 
	C215.675980,476.120880 191.833984,476.585571 168.015335,476.022552 
	C139.650879,475.352112 117.158852,457.231476 110.346764,430.667084 
	C107.949959,421.320526 108.805664,411.793945 108.675095,402.323029 
	C108.601593,396.991211 108.760429,391.655548 108.650215,386.325012 
	C108.572319,382.557678 110.221558,380.752228 113.989937,380.767883 
	C119.822388,380.792114 125.665558,380.528748 131.485489,380.795288 
	C143.360443,381.339172 151.604446,393.665314 147.950836,404.981354 
	C146.984238,407.975098 144.631653,407.250793 142.603851,407.312683 
	C135.992249,407.514496 135.990952,407.472229 136.258224,414.051697 
	C136.872818,429.181244 150.481308,443.951691 166.147705,446.609131 
	C171.761536,447.561401 177.398315,447.653198 183.066605,447.716187 
	C186.382156,447.753052 187.969925,446.794739 187.909302,443.200256 
	C187.754745,434.036987 187.959137,424.867554 187.796677,415.704559 
	C187.683990,409.348572 185.529480,407.394318 179.288879,407.292908 
	C166.692490,407.088196 166.692505,407.088196 166.670242,394.041718 
	C166.635956,373.950897 154.168549,357.104828 135.486176,352.021149 
	C129.118896,350.288544 122.563759,351.129517 116.090904,350.909546 
	C108.984268,350.667999 108.679565,350.465088 108.674217,343.591614 
	C108.660477,325.926178 108.664879,308.260712 108.684776,290.595276 
	C108.692345,283.874786 108.902695,283.681580 115.803192,283.675049 
	C128.968948,283.662598 142.136108,283.563812 155.299698,283.733185 
	C159.440842,283.786469 162.783859,282.555969 165.613098,279.655792 
	C173.874130,271.187500 182.111237,262.695618 190.413315,254.267731 
	C192.335388,252.316528 193.417084,250.195709 192.333466,247.544632 
	C191.226242,244.835831 188.842331,244.269348 186.162262,244.265945 
	C175.330185,244.252213 164.497375,244.248978 153.666641,244.105789 
	C150.509125,244.064041 148.925842,245.196167 149.216461,248.456253 
	C149.543594,252.126205 147.874374,253.429199 144.226715,253.369583 
	C134.063431,253.203461 123.894981,253.236572 113.730194,253.344086 
	C110.183136,253.381607 108.623039,252.128922 108.636681,248.399231 
	C108.747047,218.235199 108.316795,188.062561 108.901283,157.909012 
	C109.363159,134.080475 130.746231,111.970764 155.143539,108.702362 
	C156.133057,108.569794 157.124680,108.451378 158.111847,108.303200 
	C163.560226,107.485374 164.094254,107.922676 164.127884,113.619644 
	C164.181992,122.783676 163.832138,131.965073 164.275848,141.108917 
	C165.433212,164.959152 188.119278,183.151871 211.922913,181.344315 
	C232.934937,179.748749 252.881409,161.257935 252.677490,135.659164 
	C252.616440,127.993988 252.829208,120.326447 252.749451,112.661728 
	C252.716599,109.505676 253.919037,108.104614 257.123535,108.101601 
	C281.621399,108.078560 306.119293,108.014832 330.616882,107.902634 
	C334.229401,107.886086 335.120697,109.839317 335.109558,112.983833 
	C335.079468,121.482704 335.293518,129.983658 335.182495,138.480804 
	C334.886627,161.121979 356.302826,180.579697 377.589539,181.335831 
	C405.004333,182.309631 424.398773,160.089447 423.702911,136.369141 
	C423.473328,128.543289 423.792816,120.702423 423.638916,112.872787 
	C423.558167,108.762619 425.264160,107.770424 429.153046,108.222672 
	C458.154449,111.595306 478.913544,134.448883 479.097046,163.696075 
	C479.270599,191.359924 479.220459,219.025223 479.243500,246.689911 
	C479.248901,253.148224 479.023438,253.328613 472.409698,253.325150 
	C462.910370,253.320175 453.409241,253.193680 443.912567,253.346588 
	C440.177612,253.406708 438.151611,252.370895 438.647125,248.266037 
	C438.957428,245.695465 437.963226,243.959198 435.095123,244.103928 
	C423.458679,244.691116 411.826080,242.860138 400.182343,244.114410 
	C397.632446,244.389099 395.619629,245.195755 394.612640,247.605164 
	C393.476990,250.322495 394.760742,252.367538 396.650391,254.277908 
	C405.086975,262.806946 413.515533,271.344727 421.860840,279.962738 
	C424.456390,282.643097 427.299255,283.808533 431.139587,283.749603 
	C445.135376,283.534790 459.138672,283.805176 473.134094,283.579193 
	C477.601318,283.507050 479.385864,284.778473 479.334076,289.486420 
	C479.130524,307.982971 479.140900,326.483826 479.301941,344.981079 
	C479.342377,349.625977 477.506500,351.296112 473.053894,350.986481 
	C469.903198,350.767365 466.705658,351.179565 463.561157,350.920258 
	C441.771027,349.123444 419.535400,372.087708 421.218475,393.530518 
	C421.387451,395.683289 421.443665,397.887909 421.180664,400.022675 
	C420.624084,404.540253 422.472137,406.587555 427.394897,406.354523 
M164.714661,229.086624 
	C172.544052,229.039169 180.373611,228.939392 188.202774,228.964188 
	C192.786591,228.978714 198.087799,229.269699 200.533386,233.151215 
	C204.041580,238.719269 208.677124,238.195587 213.743973,237.937912 
	C215.737839,237.836487 217.756927,238.086197 219.737732,237.896332 
	C231.464523,236.772369 240.824265,241.034225 248.408737,249.914322 
	C252.270752,254.436020 256.554535,258.597504 260.687714,262.964142 
	C266.937714,256.891510 272.579346,251.542053 278.046936,246.020248 
	C279.774689,244.275391 279.700531,241.770935 279.688812,239.398132 
	C279.646820,230.902603 279.683807,222.406738 279.654144,213.911118 
	C279.634644,208.322556 278.617859,207.132614 272.936066,207.129486 
	C232.788910,207.107422 192.641403,207.093262 152.494720,207.257263 
	C142.462357,207.298264 135.933685,214.795029 136.226151,224.811172 
	C136.312912,227.782837 137.377609,229.029434 140.331558,229.065201 
	C148.143280,229.159821 155.950806,230.206299 164.714661,229.086624 
M314.490479,250.994354 
	C318.124817,254.822357 321.759155,258.650360 325.568176,262.662323 
	C331.580475,256.770935 337.061066,251.495743 342.431854,246.111069 
	C347.755981,240.773239 354.101837,237.980972 361.647827,237.987869 
	C367.637177,237.993347 373.627960,237.976349 379.614777,238.114075 
	C381.188141,238.150284 382.540222,238.301041 383.490173,236.703125 
	C387.034088,230.741806 392.675171,229.924164 399.015411,229.875290 
	C415.143585,229.750992 431.267914,229.178543 447.395782,228.904617 
	C450.610718,228.850006 451.709961,227.605362 451.716644,224.401566 
	C451.734924,215.618408 445.032745,207.835480 436.228394,207.223190 
	C431.092346,206.866028 425.916626,207.038574 420.758820,207.040985 
	C385.974823,207.057251 351.190857,207.081955 316.406860,207.127914 
	C308.589417,207.138245 308.398560,207.380981 308.380493,215.376068 
	C308.364319,222.532516 308.601715,229.702194 308.239105,236.841217 
	C307.952545,242.483337 309.761536,246.911789 314.490479,250.994354 
M401.477814,238.119003 
	C402.803894,236.934158 402.772095,235.691101 401.142731,235.047272 
	C398.546204,234.021301 395.849182,233.124954 392.970825,233.921158 
	C391.111481,234.435501 389.567688,235.386246 389.303009,237.465378 
	C388.995941,239.877228 390.453522,241.617096 392.166626,242.891037 
	C393.798615,244.104660 395.275787,242.746964 396.603058,241.801514 
	C398.075684,240.752472 399.484741,239.614166 401.477814,238.119003 
z"/>
<path fill="#FFFFFF" opacity="1.000000" stroke="none" 
	d="
M449.922424,421.856079 
	C450.422760,419.858704 450.847504,418.249664 451.184296,416.622375 
	C452.833191,408.654388 452.174805,407.663574 444.174347,407.402985 
	C441.029022,407.300537 439.816864,406.223480 439.642334,403.007874 
	C438.820129,387.859375 445.454803,380.745911 460.734314,380.720642 
	C465.232239,380.713196 469.730286,380.731903 474.228119,380.763947 
	C476.850250,380.782623 479.139771,381.753937 479.098389,384.632019 
	C478.871582,400.409027 480.935791,416.367188 476.906494,431.888306 
	C469.971771,458.601501 447.583496,475.805878 418.544708,476.025299 
	C369.069427,476.399231 319.589264,476.103973 270.111450,476.221252 
	C265.818085,476.231445 264.606354,474.502045 264.741486,470.559021 
	C264.941071,464.735016 264.980011,458.891449 264.734589,453.071106 
	C264.560822,448.950287 266.081268,447.588348 270.209717,447.608826 
	C297.363770,447.743530 324.518890,447.670868 351.673645,447.666595 
	C371.831482,447.663391 391.989746,447.740753 412.147034,447.634857 
	C429.847046,447.541870 443.352020,438.334259 449.922424,421.856079 
z"/>
<path fill="#FFFFFF" opacity="1.000000" stroke="none" 
	d="
M355.677124,69.812981 
	C362.636902,60.216328 371.751404,55.921371 383.140137,57.546257 
	C394.447662,59.159557 402.380951,65.476768 406.256439,76.354141 
	C407.246338,79.132614 407.931061,82.190262 407.936646,85.121208 
	C407.971802,103.596840 409.036987,122.113487 407.410706,140.536942 
	C406.198914,154.264832 397.005768,163.556580 384.576385,165.200516 
	C370.975494,166.999405 358.890381,160.239975 353.400208,147.751633 
	C351.634857,143.735962 350.740570,139.519196 350.734222,135.140427 
	C350.710602,118.816475 350.712830,102.492455 350.728882,86.168480 
	C350.734589,80.361725 352.281708,74.992546 355.677124,69.812981 
M369.757416,130.356720 
	C367.425720,135.115311 368.227539,139.473053 371.929657,143.064667 
	C375.192841,146.230469 379.114410,147.776184 383.728882,145.933578 
	C388.323700,144.098877 391.563782,139.615387 391.388245,135.317337 
	C391.187988,130.413513 387.893646,126.304939 382.943573,124.785576 
	C377.827454,123.215248 373.871552,124.740685 369.757416,130.356720 
z"/>
<path fill="#FFFFFF" opacity="1.000000" stroke="none" 
	d="
M237.052872,122.995972 
	C237.012405,130.144806 237.561356,136.847931 235.918732,143.384033 
	C232.226212,158.077042 219.752747,166.721680 204.550018,165.252045 
	C190.925781,163.934998 179.969452,151.747391 179.766632,137.076279 
	C179.524933,119.593102 179.491180,102.101494 179.738922,84.618813 
	C179.949463,69.761002 192.497955,57.437466 207.315964,56.953655 
	C221.686722,56.484455 234.922272,68.027527 236.372437,82.560867 
	C237.697800,95.843376 236.817535,109.184166 237.052872,122.995972 
M214.095779,144.737885 
	C221.396500,138.671066 221.034363,129.572556 213.334885,125.620613 
	C208.389984,123.082520 202.912354,124.146988 199.372879,128.333847 
	C195.955231,132.376541 195.614502,137.536606 198.493027,141.657837 
	C201.910126,146.550156 207.043076,147.741730 214.095779,144.737885 
z"/>
<path fill="#FFFFFF" opacity="1.000000" stroke="none" 
	d="
M307.801575,440.335571 
	C304.850189,437.350220 302.004822,434.757202 299.505981,431.864838 
	C296.851379,428.792175 294.658264,429.172791 292.108429,431.935516 
	C289.176422,435.112335 286.226654,438.319977 282.946381,441.117554 
	C277.567688,445.704742 271.499878,445.431427 267.417847,440.805786 
	C263.322144,436.164642 263.706818,430.853577 268.710541,425.797821 
	C274.332367,420.117462 279.966827,414.440674 285.802002,408.982819 
	C292.634613,402.591980 300.537445,402.864655 307.062622,409.423279 
	C312.348145,414.735931 317.662445,420.020630 322.895416,425.384613 
	C328.263306,430.886871 329.004883,436.577362 325.021881,440.753693 
	C320.510925,445.483521 313.891479,445.422058 307.801575,440.335571 
z"/>
<path fill="#FFFFFF" opacity="1.000000" stroke="none" 
	d="
M335.889465,397.111572 
	C339.741180,401.042969 343.524353,404.564819 346.912140,408.433014 
	C351.415985,413.575500 351.286011,418.752594 346.962524,423.118988 
	C342.744995,427.378357 336.531952,427.538055 331.797424,422.900635 
	C320.404175,411.740906 309.150330,400.434479 298.027954,389.004578 
	C293.392975,384.241455 293.470734,377.492432 297.650269,373.352142 
	C301.744293,369.296600 308.536011,369.356323 313.341125,374.055908 
	C320.940094,381.487915 328.226349,389.239746 335.889465,397.111572 
z"/>
<path fill="#FFFFFF" opacity="1.000000" stroke="none" 
	d="
M247.310226,364.139038 
	C253.513275,360.035431 259.404236,360.213226 262.891785,364.361084 
	C266.657440,368.839661 266.327362,375.181885 261.486786,380.080780 
	C254.119598,387.536621 246.523376,394.772522 238.869919,401.936768 
	C234.116394,406.386444 228.057999,406.509186 224.065781,402.617249 
	C219.777573,398.436737 219.360611,392.825134 223.929901,387.868103 
	C231.368866,379.797852 239.303848,372.184814 247.310226,364.139038 
z"/>
<path fill="#FFFFFF" opacity="1.000000" stroke="none" 
	d="
M282.102905,384.795654 
	C286.992432,391.311859 286.799591,396.035919 281.515564,401.369812 
	C274.737488,408.211853 267.906250,415.003143 260.999664,421.715210 
	C257.809570,424.815430 254.156433,427.166656 249.385559,425.757202 
	C241.819717,423.522034 239.060318,414.576843 244.525803,408.577606 
	C251.898621,400.484863 259.716064,392.785370 267.552917,385.132385 
	C271.228119,381.543396 276.445099,381.586090 282.102905,384.795654 
z"/>
</svg>